<svg width="50" height="50" viewBox="0 0 50 50" fill="none" xmlns="http://www.w3.org/2000/svg">
<rect width="50" height="50" fill="#5BDE66"/>
<path d="M14.4632 19.2576L11.5489 39.6576C11.5231 39.8383 11.6633 40 11.8459 40H39.1541C39.3367 40 39.4769 39.8383 39.4511 39.6576L36.5368 19.2576C36.5157 19.1098 36.3891 19 36.2398 19H14.7602C14.6109 19 14.4843 19.1098 14.4632 19.2576Z" fill="#E74900" stroke="#B13800" stroke-width="2"/>
<path d="M21 6V4H15.5V6H21Z" fill="#209100"/>
<path d="M21 8V6H26V8H21Z" fill="#209100"/>
<path d="M26 6V4H21V6H26Z" fill="#FFD000"/>
<path d="M16 8V6H21V8H16Z" fill="#FFD000"/>
<rect x="15" y="3" width="1" height="15" rx="0.5" fill="#B13800"/>
<path d="M16 4H26V8H16" stroke="#B13800" stroke-width="0.5"/>
<rect x="33.3367" y="17.5005" width="3.28855" height="29.6269" transform="rotate(42.1274 33.3367 17.5005)" fill="#B13800"/>
<rect width="3.28855" height="29.9097" transform="matrix(0.741656 -0.670781 -0.670781 -0.741656 34.9316 41.6906)" fill="#B13800"/>
<rect x="13" y="20" width="4" height="25" rx="1" transform="rotate(-90 13 20)" fill="#B13800"/>
<rect x="11.5" y="18" width="2" height="28" transform="rotate(-90 11.5 18)" fill="#CE4100"/>
<rect x="9" y="39" width="33" height="7" rx="1" fill="#D9D9D9"/>
<rect x="22.5" y="15.8" width="6" height="13" fill="#FFD000"/>
<rect x="23.5" y="17" width="4" height="11" fill="#209100"/>
<path d="M9 42.5H42" stroke="#C4C4C4" stroke-width="0.5"/>
<path d="M14 42.5V39" stroke="#C4C4C4" stroke-width="0.5"/>
<path d="M12 46V42.5" stroke="#C4C4C4" stroke-width="0.5"/>
<path d="M18 46V42.5" stroke="#C4C4C4" stroke-width="0.5"/>
<path d="M24 46V42.5" stroke="#C4C4C4" stroke-width="0.5"/>
<path d="M30 46V42.5" stroke="#C4C4C4" stroke-width="0.5"/>
<path d="M36 46V42.5" stroke="#C4C4C4" stroke-width="0.5"/>
<path d="M20 42.5V39" stroke="#C4C4C4" stroke-width="0.5"/>
<path d="M26 42.5V39" stroke="#C4C4C4" stroke-width="0.5"/>
<path d="M32 42.5V39" stroke="#C4C4C4" stroke-width="0.5"/>
<path d="M38 42.5V39" stroke="#C4C4C4" stroke-width="0.5"/>
<path d="M13 16V14.5M13 13V14.5M13 14.5H38V13V16" stroke="#B13800" stroke-width="0.5"/>
<path d="M19 14.5V16M32 14.5V16M25.5 14.5V16" stroke="#B13800" stroke-width="0.5"/>
</svg>
