<svg width="50" height="50" viewBox="0 0 50 50" fill="none" xmlns="http://www.w3.org/2000/svg">
<rect width="50" height="50" fill="#5BDE66"/>
<rect x="6.01781" y="31.302" width="2" height="10" rx="1" transform="rotate(-11.5662 6.01781 31.302)" fill="#209100"/>
<rect x="11" y="29" width="2" height="10" rx="1" fill="#209100"/>
<rect x="15.4264" y="32" width="2" height="10" rx="1" transform="rotate(14.0421 15.4264 32)" fill="#209100"/>
<rect x="15.4928" y="6.12881" width="2" height="10" rx="1" transform="rotate(-5.88229 15.4928 6.12881)" fill="#209100"/>
<rect x="20.5405" y="2.92172" width="2" height="10" rx="1" transform="rotate(6.1391 20.5405 2.92172)" fill="#209100"/>
<rect x="24.171" y="5.90384" width="2" height="10" rx="1" transform="rotate(13.2315 24.171 5.90384)" fill="#209100"/>
<rect x="31.1086" y="28.2648" width="2" height="10" rx="1" transform="rotate(-10.4639 31.1086 28.2648)" fill="#209100"/>
<rect x="35" y="25.1581" width="2" height="10" rx="1" transform="rotate(-4.53284 35 25.1581)" fill="#209100"/>
<rect x="39.8251" y="26.904" width="2" height="10" rx="1" transform="rotate(9.34429 39.8251 26.904)" fill="#209100"/>
</svg>
