<svg width="80" height="80" viewBox="0 0 80 80" fill="none" xmlns="http://www.w3.org/2000/svg">
<circle cx="40" cy="57" r="20" fill="#F06423"/>
<path d="M22.5 23.2809L21 56H59.5L57.5 23C57.5 17.9663 52 18.5955 52 23C52 28.6629 48 28.9438 48 23.2809C48 17.618 47.5 12 47.5 12C46 1.49998 35.5 3.99998 35 14.5L34.5 23.2809C35.05 32.0899 30.7 37 30 23.2809C29.5832 15.1117 22.5 15.7303 22.5 23.2809Z" fill="#F06423"/>
<path d="M24 32.2921L23 57.0113L57 58L56 29C56 25.0449 54 23.5 53.5 29C53 34.5 47 35 46.5 30C46 25 45 19 45 19C44.5 11 37.5 11 37 19L35.5 32.2921C35 40 29.5 39.5 29 32.2921C28.5552 25.8806 24 26.3595 24 32.2921Z" fill="#FAA019"/>
<circle cx="40" cy="57" r="18" fill="#FAA019"/>
<circle cx="40" cy="57" r="15" fill="#FACD19"/>
<circle cx="40" cy="57" r="12" fill="#463C4B"/>
<circle cx="45" cy="59" r="2" fill="#555A6E"/>
<circle cx="37.5" cy="62.5" r="1.5" fill="#555A6E"/>
<rect x="27" y="6" width="4" height="8" rx="2" fill="#F06423"/>
<rect x="51" y="8" width="3" height="7" rx="1.5" fill="#F06423"/>
<rect x="47" y="2" width="3" height="4" rx="1.5" fill="#F06423"/>
</svg>
